HIERARCHY
ROOT SpineBase
{
  OFFSET 0.000000 0.000000 0.000000
  CHANNELS 6 Xposition Yposition Zposition Zrotation Xrotation Yrotation
  JOINT SpineMid
  {
    OFFSET -0.000000 32.345361 0.000000
    CHANNELS 3 Zrotation Xrotation Yrotation
    JOINT SpineShoulder
    {
      OFFSET -0.045301 24.065674 -0.692735
      CHANNELS 3 Zrotation Xrotation Yrotation
      JOINT Neck
      {
        OFFSET 0.012553 7.913518 -0.511434
        CHANNELS 3 Zrotation Xrotation Yrotation
        JOINT Head
        {
          OFFSET 4.748415 11.364034 7.629219
          CHANNELS 3 Zrotation Xrotation Yrotation
          End Site
          {
            OFFSET 0 0 0
          }
        }
      }
      JOINT ShoulderLeft
      {
        OFFSET -3.433702 -4.815000 -15.042491
        CHANNELS 3 Zrotation Xrotation Yrotation
        JOINT ElbowLeft
        {
          OFFSET -6.119780 -24.642164 -7.984476
          CHANNELS 3 Zrotation Xrotation Yrotation
          JOINT WristLeft
          {
            OFFSET 3.356594 -25.086877 -3.614006
            CHANNELS 3 Zrotation Xrotation Yrotation
            JOINT HandLeft
            {
              OFFSET -0.854219 -8.123487 1.355100
              CHANNELS 3 Zrotation Xrotation Yrotation
              JOINT HandTipLeft
              {
                OFFSET 0.094450 -6.288909 0.011506
                CHANNELS 3 Zrotation Xrotation Yrotation
                End Site
                {
                  OFFSET 0 0 0
                }
              }
              JOINT ThumbLeft
              {
                OFFSET -2.159685 -0.778633 -5.285946
                CHANNELS 3 Zrotation Xrotation Yrotation
                End Site
                {
                  OFFSET 0 0 0
                }
              }
            }
          }
        }
      }
      JOINT ShoulderRight
      {
        OFFSET 6.912336 -0.123039 16.046543
        CHANNELS 3 Zrotation Xrotation Yrotation
        JOINT ElbowRight
        {
          OFFSET 1.148006 -29.517290 4.736440
          CHANNELS 3 Zrotation Xrotation Yrotation
          JOINT WristRight
          {
            OFFSET -2.784417 -24.584956 13.849899
            CHANNELS 3 Zrotation Xrotation Yrotation
            JOINT HandRight
            {
              OFFSET 0.200340 -8.919496 2.616946
              CHANNELS 3 Zrotation Xrotation Yrotation
              JOINT HandTipRight
              {
                OFFSET 0.124966 -1.180309 -0.116365
                CHANNELS 3 Zrotation Xrotation Yrotation
                End Site
                {
                  OFFSET 0 0 0
                }
              }
              JOINT ThumbRight
              {
                OFFSET 0.132678 0.301081 -3.092656
                CHANNELS 3 Zrotation Xrotation Yrotation
                End Site
                {
                  OFFSET 0 0 0
                }
              }
            }
          }
        }
      }
    }
  }
  JOINT HipLeft
  {
    OFFSET -1.698332 1.815450 -8.426490
    CHANNELS 3 Zrotation Xrotation Yrotation
    JOINT KneeLeft
    {
      OFFSET 9.205038 -32.874767 -4.211145
      CHANNELS 3 Zrotation Xrotation Yrotation
      JOINT AnkleLeft
      {
        OFFSET 3.498104 -43.419395 0.893620
        CHANNELS 3 Zrotation Xrotation Yrotation
        JOINT FootLeft
        {
          OFFSET 11.053321 -3.906210 -6.447052
          CHANNELS 3 Zrotation Xrotation Yrotation
          End Site
          {
            OFFSET 0 0 0
          }
        }
      }
    }
  }
  JOINT HipRight
  {
    OFFSET 3.234333 -1.365823 1.379336
    CHANNELS 3 Zrotation Xrotation Yrotation
    JOINT KneeRight
    {
      OFFSET -1.849553 -35.096839 -12.990183
      CHANNELS 3 Zrotation Xrotation Yrotation
      JOINT AnkleRight
      {
        OFFSET -16.403651 -35.019762 18.815510
        CHANNELS 3 Zrotation Xrotation Yrotation
        JOINT FootRight
        {
          OFFSET 3.884643 -8.593619 -1.031920
          CHANNELS 3 Zrotation Xrotation Yrotation
          End Site
          {
            OFFSET 0 0 0
          }
        }
      }
    }
  }
}
MOTION
Frames: 9
Frame Time: 0.033333
-87.701674 84.989585 388.905224 0.000000 0.000000 -63.296045 0.000000 -0.000000 63.296045 -0.000000 0.000000 0.000000 -0.000000 0.000000 0.000000 0.000000 0.000000 0.000000 -0.000000 0.000000 0.000000 -0.000000 0.000000 0.000000 -0.000000 0.000000 0.000000 -0.000000 0.000000 0.000000 0.000000 0.000000 0.000000 0.000000 0.000000 0.000000 -0.000000 0.000000 0.000000 -0.000000 0.000000 0.000000 -0.000000 0.000000 0.000000 -0.000000 0.000000 0.000000 0.000000 0.000000 0.000000 0.000000 0.000000 0.000000 0.000000 -0.000000 63.296045 -0.000000 0.000000 0.000000 -0.000000 0.000000 0.000000 0.000000 0.000000 0.000000 0.000000 -0.000000 63.296045 -0.000000 0.000000 0.000000 -0.000000 0.000000 0.000000 0.000000 0.000000 0.000000
-87.470070 85.352530 388.758042 0.703248 -0.019201 -63.933925 -0.326273 -0.623279 63.932268 -0.000000 0.000000 0.000000 -0.000000 0.000000 0.000000 0.000000 0.000000 0.000000 -0.000000 0.000000 0.000000 -0.000000 0.000000 0.000000 3.900309 -0.409585 0.709998 -4.898775 -2.840944 -0.752893 0.000000 0.000000 0.000000 0.000000 0.000000 0.000000 -0.000000 0.000000 0.000000 -0.000000 0.000000 0.000000 -2.981866 -8.510399 -1.261627 2.324807 3.298994 0.377457 0.000000 0.000000 0.000000 0.000000 0.000000 0.000000 -0.326273 -0.623279 63.932268 -0.000000 0.000000 0.000000 -4.793495 -2.393848 1.228981 0.000000 0.000000 0.000000 -0.326273 -0.623279 63.932268 -0.000000 0.000000 0.000000 1.435917 0.551420 0.069487 0.000000 0.000000 0.000000
-87.294251 85.679353 388.654514 1.311864 -0.061055 -64.482109 -0.321658 -0.298210 64.506553 0.117238 -0.207225 0.041918 -0.779774 -0.713694 0.117323 0.000000 0.000000 0.000000 -1.021381 0.107597 -0.065226 -0.000000 0.000000 0.000000 7.636661 -0.778173 1.417819 -9.205504 -5.033193 -1.451866 0.000000 0.000000 0.000000 0.000000 0.000000 0.000000 -1.021381 0.107597 -0.065226 -0.000000 0.000000 0.000000 -5.142621 -14.205082 -2.386556 3.953578 6.123378 0.498695 0.000000 0.000000 0.000000 0.000000 0.000000 0.000000 -1.432601 -0.834760 64.713899 -0.253733 -1.934814 -0.350598 -8.741602 -3.587813 2.411333 0.000000 0.000000 0.000000 -0.465321 -1.935172 64.741092 1.303389 1.094381 -0.208375 2.004878 0.145090 -0.027620 0.000000 0.000000 0.000000
-87.174217 85.970054 388.594640 1.823448 -0.125808 -64.952055 -0.431091 -0.397704 64.986668 0.152199 -0.282134 0.059512 -0.885841 -1.204062 0.129237 0.000000 0.000000 0.000000 -1.432704 0.188005 -0.090553 1.061455 -0.454869 -0.209425 10.093279 -0.621755 2.235332 -12.848004 -6.624484 -2.059318 0.000000 0.000000 0.000000 0.000000 0.000000 0.000000 -1.432704 0.188005 -0.090553 -0.000000 0.000000 0.000000 -6.191022 -16.826006 -2.988636 4.728826 7.564739 0.507596 0.000000 0.000000 0.000000 0.000000 0.000000 0.000000 -1.943565 -1.542188 65.238280 0.127163 -2.270463 -0.438787 -12.194016 -5.234962 3.157358 0.000000 0.000000 0.000000 -0.677173 -2.605387 65.287167 1.673984 1.431896 -0.291723 2.808593 -0.198261 -0.190172 0.000000 0.000000 0.000000
-87.109967 86.224633 388.578420 2.235961 -0.213643 -65.352903 -0.506896 -0.460882 65.397295 0.171109 -0.337660 0.074280 -0.799907 -1.786890 0.112618 0.000000 0.000000 0.000000 -1.776485 0.286232 -0.110851 1.672904 -0.670508 -0.320583 12.736373 -0.672713 2.935358 -15.772010 -7.666035 -2.556819 0.000000 0.000000 0.000000 0.000000 0.000000 0.000000 -1.776485 0.286232 -0.110851 -0.000000 0.000000 0.000000 -5.979873 -16.365993 -2.868581 4.613853 7.344950 0.495682 0.000000 0.000000 0.000000 0.000000 0.000000 0.000000 -2.297585 -2.434990 65.653654 0.836404 -2.199545 -0.465351 -14.680444 -6.485154 3.571323 0.000000 0.000000 0.000000 -0.884099 -3.078018 65.730176 1.866082 1.639688 -0.357924 3.419899 -0.848822 -0.451446 0.000000 0.000000 0.000000
-87.101503 86.443090 388.605855 2.547695 -0.324680 -65.691810 -0.549343 -0.486002 65.745946 0.173779 -0.373639 0.085903 -0.519006 -2.465792 0.069669 0.000000 0.000000 0.000000 -2.051851 0.402346 -0.126079 2.411113 -0.918791 -0.450246 14.959478 -0.653204 3.590555 -17.941160 -8.202959 -2.942896 0.000000 0.000000 0.000000 0.000000 0.000000 0.000000 -2.051851 0.402346 -0.126079 -0.000000 0.000000 0.000000 -4.527582 -12.795491 -2.059449 3.609860 5.487553 0.447746 0.000000 0.000000 0.000000 0.000000 0.000000 0.000000 -2.491197 -3.487236 65.971921 1.860641 -1.730917 -0.436988 -16.057286 -7.209542 3.676254 0.000000 0.000000 0.000000 -1.090597 -3.353324 66.078145 1.882968 1.722001 -0.406490 3.810415 -1.802269 -0.807836 0.000000 0.000000 0.000000
-87.169356 86.664305 388.713341 2.750584 -0.488479 -65.988749 -0.544064 -0.443564 66.054261 0.164072 -0.384012 0.095359 -0.147863 -3.295077 0.087431 0.000000 0.000000 0.000000 -2.287068 0.561744 -0.137545 3.654377 -1.343884 -0.661857 17.510427 -0.354982 4.403847 -19.263648 -9.149695 -3.326706 0.000000 0.000000 0.000000 0.000000 0.000000 0.000000 -2.287068 0.561744 -0.137545 -0.000000 0.000000 0.000000 -0.281769 -1.199667 -0.112228 0.051920 -2.691718 -0.287029 0.000000 0.000000 0.000000 0.000000 0.000000 0.000000 -2.482923 -3.750900 66.207479 1.867549 -1.170479 -0.350548 -16.018198 -7.494161 3.474546 0.000000 0.000000 0.000000 -1.268685 -3.646829 66.434125 2.109154 2.017147 -0.519247 6.132506 -3.164127 -1.399803 0.000000 0.000000 0.000000
-87.337308 86.775808 388.811798 2.783798 -0.605351 -66.287999 -0.439749 -0.323195 66.363237 0.125845 -0.354783 0.099852 0.614776 -4.209237 -0.057254 0.000000 0.000000 0.000000 -1.673070 0.956633 -0.467562 4.014686 -1.877633 -0.502351 19.031188 -0.018127 4.953857 -19.745105 -9.959660 -3.538393 0.000000 0.000000 0.000000 0.000000 0.000000 0.000000 -2.435431 0.694047 -0.143820 -0.000000 0.000000 0.000000 1.067498 2.475840 0.347891 -1.561287 2.734926 0.206053 0.000000 0.000000 0.000000 0.000000 0.000000 0.000000 -2.234566 -5.122617 66.418964 3.737685 0.270650 -0.216603 -14.400521 -6.722121 2.823800 0.000000 0.000000 0.000000 -1.409159 -3.425542 66.659672 1.922805 2.023207 -0.504977 5.190948 -6.064525 -2.345573 0.000000 0.000000 0.000000
-87.466738 86.881772 389.020836 2.814352 -0.829481 -66.491277 -0.437903 -0.208531 66.575196 0.097474 -0.342485 0.103524 1.525177 -5.156824 -0.230926 0.000000 0.000000 0.000000 -1.619424 1.240065 -0.558052 4.925600 -2.230604 -0.563664 19.850388 -1.683865 6.016776 -20.009021 -6.086421 -3.689493 0.000000 0.000000 0.000000 0.000000 0.000000 0.000000 -2.543925 0.860806 -0.146754 -0.000000 0.000000 0.000000 4.378779 12.877618 1.117412 -3.566655 1.494231 -0.590056 0.000000 0.000000 0.000000 0.000000 0.000000 0.000000 -2.226333 -6.789032 66.579997 6.354320 1.928747 -0.171247 -11.062981 -5.075065 1.755792 0.000000 0.000000 0.000000 -1.883642 -2.249839 66.474662 -0.000000 0.000000 0.000000 1.813843 -6.777958 -3.176919 0.000000 0.000000 0.000000
